<?xml version="1.0" standalone="no"?>
<!DOCTYPE svg PUBLIC "-//W3C//DTD SVG 20010904//EN"
 "http://www.w3.org/TR/2001/REC-SVG-20010904/DTD/svg10.dtd">
<svg version="1.0" xmlns="http://www.w3.org/2000/svg"
 width="1024.000000pt" height="1024.000000pt" viewBox="0 0 1024.000000 1024.000000"
 preserveAspectRatio="xMidYMid meet">

<g transform="translate(0.000000,1024.000000) scale(0.100000,-0.100000)"
fill="#000000" stroke="none">
<path d="M3315 9249 c-555 -6 -665 -14 -888 -60 -374 -77 -714 -273 -957 -551
-246 -283 -384 -609 -435 -1031 -30 -246 -37 -911 -32 -2817 6 -1835 9 -1976
42 -2215 88 -623 436 -1110 977 -1370 261 -125 503 -175 940 -195 289 -13
4006 -13 4314 0 356 15 553 46 773 122 436 150 799 477 990 890 119 258 171
502 191 898 13 266 13 4165 0 4419 -27 510 -112 810 -314 1114 -250 376 -624
629 -1078 731 -224 50 -320 57 -988 66 -710 10 -2741 9 -3535 -1z m640 -1778
c41 -19 373 -347 1771 -1745 1398 -1398 1726 -1730 1745 -1771 24 -50 24 -50
27 -485 3 -375 1 -443 -13 -496 -24 -88 -75 -151 -159 -194 l-69 -35 -461 0
-461 0 -50 27 c-68 36 -3493 3463 -3521 3523 -18 37 -19 69 -19 505 0 452 1
466 21 510 42 89 106 145 200 174 41 12 121 15 494 13 l445 -2 50 -24z m3357
2 c67 -31 123 -86 155 -151 l28 -57 3 -942 c2 -926 2 -942 -17 -952 -33 -18
-48 -3 -102 96 -431 800 -1061 1438 -1856 1882 -157 87 -178 106 -152 137 10
13 133 14 953 12 l941 -3 47 -22z m-4429 -2738 c426 -765 1036 -1388 1762
-1801 66 -37 145 -82 175 -99 57 -32 73 -62 47 -84 -11 -9 -239 -11 -949 -9
l-935 3 -69 35 c-49 25 -79 49 -105 84 -71 94 -69 57 -69 1077 0 714 3 918 12
927 30 30 52 8 131 -133z"/>
</g>
</svg>
